<?xml version="1.0" encoding="UTF-8" standalone="no"?>
<!DOCTYPE svg PUBLIC "-//W3C//DTD SVG 1.1//EN"
 "http://www.w3.org/Graphics/SVG/1.1/DTD/svg11.dtd">
<!-- Generated by graphviz version 2.40.1 (20161225.0304)
 -->
<!-- Title: %3 Pages: 1 -->
<svg width="1301pt" height="888pt"
 viewBox="0.00 0.00 1300.50 888.00" xmlns="http://www.w3.org/2000/svg" xmlns:xlink="http://www.w3.org/1999/xlink">
<g id="graph0" class="graph" transform="scale(1 1) rotate(0) translate(4 884)">
<title>%3</title>
<polygon fill="#ffffff" stroke="transparent" points="-4,4 -4,-884 1296.5,-884 1296.5,4 -4,4"/>
<!-- 43 -->
<g id="node1" class="node">
<title>43</title>
<g id="a_node1"><a xlink:title="/home/chervontsev/.local/lib/python3.6/site&#45;packages/torch/nn/modules/container.py">
<polygon fill="#0d1074" stroke="#0d1074" points="106,-420 2,-420 2,-368 106,-368 106,-420"/>
<text text-anchor="middle" x="54" y="-408" font-family="Arial" font-size="10.00" fill="#ffffff">container:90:forward</text>
<text text-anchor="middle" x="54" y="-397" font-family="Arial" font-size="10.00" fill="#ffffff">0.76%</text>
<text text-anchor="middle" x="54" y="-386" font-family="Arial" font-size="10.00" fill="#ffffff">(0.03%)</text>
<text text-anchor="middle" x="54" y="-375" font-family="Arial" font-size="10.00" fill="#ffffff">5160000×</text>
</a>
</g>
</g>
<!-- 44 -->
<g id="node2" class="node">
<title>44</title>
<g id="a_node2"><a xlink:title="/home/chervontsev/.local/lib/python3.6/site&#45;packages/torch/nn/modules/module.py">
<polygon fill="#0d1074" stroke="#0d1074" points="106,-328 0,-328 0,-276 106,-276 106,-328"/>
<text text-anchor="middle" x="53" y="-316" font-family="Arial" font-size="10.00" fill="#ffffff">module:531:__call__</text>
<text text-anchor="middle" x="53" y="-305" font-family="Arial" font-size="10.00" fill="#ffffff">0.86%</text>
<text text-anchor="middle" x="53" y="-294" font-family="Arial" font-size="10.00" fill="#ffffff">(0.08%)</text>
<text text-anchor="middle" x="53" y="-283" font-family="Arial" font-size="10.00" fill="#ffffff">27090000×</text>
</a>
</g>
</g>
<!-- 43&#45;&gt;44 -->
<g id="edge1" class="edge">
<title>43&#45;&gt;44</title>
<path fill="none" stroke="#0d1074" stroke-width=".5" d="M29.1888,-367.6384C27.5142,-364.8654 26.0704,-361.9695 25,-359 21.6843,-349.8016 21.7635,-346.2266 25,-337 25.6761,-335.0725 26.508,-333.1723 27.4566,-331.314"/>
<polygon fill="#0d1074" stroke="#0d1074" stroke-width=".5" points="28.658,-331.673 29.2816,-328.0176 26.5146,-330.4863 28.658,-331.673"/>
<text text-anchor="middle" x="49.5" y="-351" font-family="Arial" font-size="10.00" fill="#0d1074">0.73%</text>
<text text-anchor="middle" x="49.5" y="-340" font-family="Arial" font-size="10.00" fill="#0d1074">20640000×</text>
</g>
<!-- 44&#45;&gt;43 -->
<g id="edge2" class="edge">
<title>44&#45;&gt;43</title>
<path fill="none" stroke="#0d1074" stroke-width=".5" d="M68.9687,-328.1873C70.1986,-331.0825 71.2513,-334.0514 72,-337 74.4065,-346.477 74.3005,-349.4967 72,-359 71.58,-360.735 71.0583,-362.4803 70.4599,-364.2159"/>
<polygon fill="#0d1074" stroke="#0d1074" stroke-width=".5" points="69.2136,-364.0509 69.1323,-367.7582 71.5078,-364.9108 69.2136,-364.0509"/>
<text text-anchor="middle" x="95.5" y="-351" font-family="Arial" font-size="10.00" fill="#0d1074">0.76%</text>
<text text-anchor="middle" x="95.5" y="-340" font-family="Arial" font-size="10.00" fill="#0d1074">5160000×</text>
</g>
<!-- 1541 -->
<g id="node3" class="node">
<title>1541</title>
<g id="a_node3"><a xlink:title="/home/chervontsev/lightning_rnd/models.py">
<polygon fill="#0d1074" stroke="#0d1074" points="119,-236 23,-236 23,-184 119,-184 119,-236"/>
<text text-anchor="middle" x="71" y="-224" font-family="Arial" font-size="10.00" fill="#ffffff">models:53:forward</text>
<text text-anchor="middle" x="71" y="-213" font-family="Arial" font-size="10.00" fill="#ffffff">0.84%</text>
<text text-anchor="middle" x="71" y="-202" font-family="Arial" font-size="10.00" fill="#ffffff">(0.02%)</text>
<text text-anchor="middle" x="71" y="-191" font-family="Arial" font-size="10.00" fill="#ffffff">1290000×</text>
</a>
</g>
</g>
<!-- 44&#45;&gt;1541 -->
<g id="edge3" class="edge">
<title>44&#45;&gt;1541</title>
<path fill="none" stroke="#0d1074" stroke-width=".5" d="M47.3895,-275.7775C46.2654,-265.963 46.1705,-254.8182 49,-245 49.5465,-243.1035 50.2295,-241.2105 51.0134,-239.3423"/>
<polygon fill="#0d1074" stroke="#0d1074" stroke-width=".5" points="52.1944,-239.7041 52.5254,-236.0107 49.9634,-238.6915 52.1944,-239.7041"/>
<text text-anchor="middle" x="70.5" y="-259" font-family="Arial" font-size="10.00" fill="#0d1074">0.84%</text>
<text text-anchor="middle" x="70.5" y="-248" font-family="Arial" font-size="10.00" fill="#0d1074">1290000×</text>
</g>
<!-- 1541&#45;&gt;44 -->
<g id="edge26" class="edge">
<title>1541&#45;&gt;44</title>
<path fill="none" stroke="#0d1074" stroke-width=".5" d="M87.801,-236.1689C92.0032,-245.9773 94.249,-257.1318 90,-267 89.128,-269.0253 88.0747,-270.9881 86.8839,-272.8814"/>
<polygon fill="#0d1074" stroke="#0d1074" stroke-width=".5" points="85.8563,-272.2141 84.9055,-275.7984 87.8839,-273.5894 85.8563,-272.2141"/>
<text text-anchor="middle" x="114.5" y="-259" font-family="Arial" font-size="10.00" fill="#0d1074">0.78%</text>
<text text-anchor="middle" x="114.5" y="-248" font-family="Arial" font-size="10.00" fill="#0d1074">5160000×</text>
</g>
<!-- 119 -->
<g id="node4" class="node">
<title>119</title>
<g id="a_node4"><a xlink:title="~">
<polygon fill="#0d1575" stroke="#0d1575" points="484,-52 276,-52 276,0 484,0 484,-52"/>
<text text-anchor="middle" x="380" y="-40" font-family="Arial" font-size="10.00" fill="#ffffff">~:0:&lt;method &#39;write&#39; of &#39;_io.BytesIO&#39; objects&gt;</text>
<text text-anchor="middle" x="380" y="-29" font-family="Arial" font-size="10.00" fill="#ffffff">2.04%</text>
<text text-anchor="middle" x="380" y="-18" font-family="Arial" font-size="10.00" fill="#ffffff">(2.04%)</text>
<text text-anchor="middle" x="380" y="-7" font-family="Arial" font-size="10.00" fill="#ffffff">463353741×</text>
</a>
</g>
</g>
<!-- 120 -->
<g id="node5" class="node">
<title>120</title>
<g id="a_node5"><a xlink:title="/home/chervontsev/miniconda3/envs/rnd/lib/python3.6/multiprocessing/connection.py">
<polygon fill="#0c9093" stroke="#0c9093" points="339,-144 229,-144 229,-92 339,-92 339,-144"/>
<text text-anchor="middle" x="284" y="-132" font-family="Arial" font-size="10.00" fill="#ffffff">connection:374:_recv</text>
<text text-anchor="middle" x="284" y="-121" font-family="Arial" font-size="10.00" fill="#ffffff">24.51%</text>
<text text-anchor="middle" x="284" y="-110" font-family="Arial" font-size="10.00" fill="#ffffff">(0.48%)</text>
<text text-anchor="middle" x="284" y="-99" font-family="Arial" font-size="10.00" fill="#ffffff">327962144×</text>
</a>
</g>
</g>
<!-- 120&#45;&gt;119 -->
<g id="edge4" class="edge">
<title>120&#45;&gt;119</title>
<path fill="none" stroke="#0d1575" stroke-width=".5" d="M311.253,-91.8826C323.3123,-80.3257 337.5351,-66.6956 349.9056,-54.8404"/>
<polygon fill="#0d1575" stroke="#0d1575" stroke-width=".5" points="350.9995,-55.4889 352.6789,-52.1827 349.3043,-53.72 350.9995,-55.4889"/>
<text text-anchor="middle" x="371" y="-75" font-family="Arial" font-size="10.00" fill="#0d1575">2.04%</text>
<text text-anchor="middle" x="371" y="-64" font-family="Arial" font-size="10.00" fill="#0d1575">463353741×</text>
</g>
<!-- 242 -->
<g id="node6" class="node">
<title>242</title>
<g id="a_node6"><a xlink:title="~">
<polygon fill="#0c7f8f" stroke="#0c7f8f" points="267,-52 109,-52 109,0 267,0 267,-52"/>
<text text-anchor="middle" x="188" y="-40" font-family="Arial" font-size="10.00" fill="#ffffff">~:0:&lt;built&#45;in method posix.read&gt;</text>
<text text-anchor="middle" x="188" y="-29" font-family="Arial" font-size="10.00" fill="#ffffff">21.93%</text>
<text text-anchor="middle" x="188" y="-18" font-family="Arial" font-size="10.00" fill="#ffffff">(21.93%)</text>
<text text-anchor="middle" x="188" y="-7" font-family="Arial" font-size="10.00" fill="#ffffff">463353743×</text>
</a>
</g>
</g>
<!-- 120&#45;&gt;242 -->
<g id="edge5" class="edge">
<title>120&#45;&gt;242</title>
<path fill="none" stroke="#0c7f8f" stroke-width=".88" d="M256.747,-91.8826C244.8904,-80.52 230.9424,-67.1531 218.7196,-55.4397"/>
<polygon fill="#0c7f8f" stroke="#0c7f8f" stroke-width=".88" points="219.8527,-54.247 215.3211,-52.1827 217.5763,-56.6224 219.8527,-54.247"/>
<text text-anchor="middle" x="275" y="-75" font-family="Arial" font-size="10.00" fill="#0c7f8f">21.93%</text>
<text text-anchor="middle" x="275" y="-64" font-family="Arial" font-size="10.00" fill="#0c7f8f">463353741×</text>
</g>
<!-- 122 -->
<g id="node7" class="node">
<title>122</title>
<g id="a_node7"><a xlink:title="/home/chervontsev/miniconda3/envs/rnd/lib/python3.6/multiprocessing/reduction.py">
<polygon fill="#0d1e78" stroke="#0d1e78" points="583,-236 481,-236 481,-184 583,-184 583,-236"/>
<text text-anchor="middle" x="532" y="-224" font-family="Arial" font-size="10.00" fill="#ffffff">reduction:48:dumps</text>
<text text-anchor="middle" x="532" y="-213" font-family="Arial" font-size="10.00" fill="#ffffff">4.09%</text>
<text text-anchor="middle" x="532" y="-202" font-family="Arial" font-size="10.00" fill="#ffffff">(0.49%)</text>
<text text-anchor="middle" x="532" y="-191" font-family="Arial" font-size="10.00" fill="#ffffff">163981072×</text>
</a>
</g>
</g>
<!-- 1406 -->
<g id="node8" class="node">
<title>1406</title>
<g id="a_node8"><a xlink:title="/home/chervontsev/miniconda3/envs/rnd/lib/python3.6/multiprocessing/reduction.py">
<polygon fill="#0d1174" stroke="#0d1174" points="687.5,-144 580.5,-144 580.5,-92 687.5,-92 687.5,-144"/>
<text text-anchor="middle" x="634" y="-132" font-family="Arial" font-size="10.00" fill="#ffffff">reduction:38:__init__</text>
<text text-anchor="middle" x="634" y="-121" font-family="Arial" font-size="10.00" fill="#ffffff">1.14%</text>
<text text-anchor="middle" x="634" y="-110" font-family="Arial" font-size="10.00" fill="#ffffff">(0.61%)</text>
<text text-anchor="middle" x="634" y="-99" font-family="Arial" font-size="10.00" fill="#ffffff">163981330×</text>
</a>
</g>
</g>
<!-- 122&#45;&gt;1406 -->
<g id="edge6" class="edge">
<title>122&#45;&gt;1406</title>
<path fill="none" stroke="#0d1174" stroke-width=".5" d="M560.9563,-183.8826C573.877,-172.2286 589.1351,-158.4663 602.3557,-146.5419"/>
<polygon fill="#0d1174" stroke="#0d1174" stroke-width=".5" points="603.1928,-147.4366 604.9713,-144.1827 601.5518,-145.6173 603.1928,-147.4366"/>
<text text-anchor="middle" x="623" y="-167" font-family="Arial" font-size="10.00" fill="#0d1174">1.14%</text>
<text text-anchor="middle" x="623" y="-156" font-family="Arial" font-size="10.00" fill="#0d1174">163981072×</text>
</g>
<!-- 2942 -->
<g id="node9" class="node">
<title>2942</title>
<g id="a_node9"><a xlink:title="~">
<polygon fill="#0d1776" stroke="#0d1776" points="572,-144 348,-144 348,-92 572,-92 572,-144"/>
<text text-anchor="middle" x="460" y="-132" font-family="Arial" font-size="10.00" fill="#ffffff">~:0:&lt;method &#39;dump&#39; of &#39;_pickle.Pickler&#39; objects&gt;</text>
<text text-anchor="middle" x="460" y="-121" font-family="Arial" font-size="10.00" fill="#ffffff">2.42%</text>
<text text-anchor="middle" x="460" y="-110" font-family="Arial" font-size="10.00" fill="#ffffff">(2.42%)</text>
<text text-anchor="middle" x="460" y="-99" font-family="Arial" font-size="10.00" fill="#ffffff">163981330×</text>
</a>
</g>
</g>
<!-- 122&#45;&gt;2942 -->
<g id="edge7" class="edge">
<title>122&#45;&gt;2942</title>
<path fill="none" stroke="#0d1776" stroke-width=".5" d="M511.5603,-183.8826C502.5918,-172.4228 492.0279,-158.9245 482.805,-147.1397"/>
<polygon fill="#0d1776" stroke="#0d1776" stroke-width=".5" points="483.6126,-146.184 480.4908,-144.1827 481.6832,-147.694 483.6126,-146.184"/>
<text text-anchor="middle" x="532" y="-167" font-family="Arial" font-size="10.00" fill="#0d1776">2.42%</text>
<text text-anchor="middle" x="532" y="-156" font-family="Arial" font-size="10.00" fill="#0d1776">163981072×</text>
</g>
<!-- 123 -->
<g id="node10" class="node">
<title>123</title>
<g id="a_node10"><a xlink:title="/home/chervontsev/miniconda3/envs/rnd/lib/python3.6/multiprocessing/connection.py">
<polygon fill="#0c9886" stroke="#0c9886" points="469,-328 365,-328 365,-276 469,-276 469,-328"/>
<text text-anchor="middle" x="417" y="-316" font-family="Arial" font-size="10.00" fill="#ffffff">connection:246:recv</text>
<text text-anchor="middle" x="417" y="-305" font-family="Arial" font-size="10.00" fill="#ffffff">28.08%</text>
<text text-anchor="middle" x="417" y="-294" font-family="Arial" font-size="10.00" fill="#ffffff">(0.32%)</text>
<text text-anchor="middle" x="417" y="-283" font-family="Arial" font-size="10.00" fill="#ffffff">163981072×</text>
</a>
</g>
</g>
<!-- 125 -->
<g id="node11" class="node">
<title>125</title>
<g id="a_node11"><a xlink:title="/home/chervontsev/miniconda3/envs/rnd/lib/python3.6/multiprocessing/connection.py">
<polygon fill="#0c9293" stroke="#0c9293" points="471.5,-236 332.5,-236 332.5,-184 471.5,-184 471.5,-236"/>
<text text-anchor="middle" x="402" y="-224" font-family="Arial" font-size="10.00" fill="#ffffff">connection:406:_recv_bytes</text>
<text text-anchor="middle" x="402" y="-213" font-family="Arial" font-size="10.00" fill="#ffffff">24.84%</text>
<text text-anchor="middle" x="402" y="-202" font-family="Arial" font-size="10.00" fill="#ffffff">(0.23%)</text>
<text text-anchor="middle" x="402" y="-191" font-family="Arial" font-size="10.00" fill="#ffffff">163981072×</text>
</a>
</g>
</g>
<!-- 123&#45;&gt;125 -->
<g id="edge8" class="edge">
<title>123&#45;&gt;125</title>
<path fill="none" stroke="#0c9293" stroke-width=".99" d="M412.7417,-275.8826C410.9841,-265.1027 408.9324,-252.5188 407.0958,-241.2543"/>
<polygon fill="#0c9293" stroke="#0c9293" stroke-width=".99" points="408.8008,-240.8359 406.2689,-236.1827 405.3464,-241.3992 408.8008,-240.8359"/>
<text text-anchor="middle" x="439" y="-259" font-family="Arial" font-size="10.00" fill="#0c9293">24.84%</text>
<text text-anchor="middle" x="439" y="-248" font-family="Arial" font-size="10.00" fill="#0c9293">163981072×</text>
</g>
<!-- 3403 -->
<g id="node12" class="node">
<title>3403</title>
<g id="a_node12"><a xlink:title="~">
<polygon fill="#0d1876" stroke="#0d1876" points="323,-236 153,-236 153,-184 323,-184 323,-236"/>
<text text-anchor="middle" x="238" y="-224" font-family="Arial" font-size="10.00" fill="#ffffff">~:0:&lt;built&#45;in method _pickle.loads&gt;</text>
<text text-anchor="middle" x="238" y="-213" font-family="Arial" font-size="10.00" fill="#ffffff">2.77%</text>
<text text-anchor="middle" x="238" y="-202" font-family="Arial" font-size="10.00" fill="#ffffff">(2.77%)</text>
<text text-anchor="middle" x="238" y="-191" font-family="Arial" font-size="10.00" fill="#ffffff">163981072×</text>
</a>
</g>
</g>
<!-- 123&#45;&gt;3403 -->
<g id="edge9" class="edge">
<title>123&#45;&gt;3403</title>
<path fill="none" stroke="#0d1876" stroke-width=".5" d="M366.1846,-275.8826C342.9387,-263.935 315.3815,-249.7715 291.7859,-237.6442"/>
<polygon fill="#0d1876" stroke="#0d1876" stroke-width=".5" points="292.3054,-236.5338 288.6324,-236.0234 291.1854,-238.7129 292.3054,-236.5338"/>
<text text-anchor="middle" x="376" y="-259" font-family="Arial" font-size="10.00" fill="#0d1876">2.77%</text>
<text text-anchor="middle" x="376" y="-248" font-family="Arial" font-size="10.00" fill="#0d1876">163981072×</text>
</g>
<!-- 125&#45;&gt;120 -->
<g id="edge10" class="edge">
<title>125&#45;&gt;120</title>
<path fill="none" stroke="#0c9093" stroke-width=".98" d="M368.5016,-183.8826C353.9278,-172.52 336.7834,-159.1531 321.7596,-147.4397"/>
<polygon fill="#0c9093" stroke="#0c9093" stroke-width=".98" points="322.6014,-145.877 317.5822,-144.1827 320.4493,-148.6372 322.6014,-145.877"/>
<text text-anchor="middle" x="385" y="-167" font-family="Arial" font-size="10.00" fill="#0c9093">24.51%</text>
<text text-anchor="middle" x="385" y="-156" font-family="Arial" font-size="10.00" fill="#0c9093">327962144×</text>
</g>
<!-- 243 -->
<g id="node13" class="node">
<title>243</title>
<g id="a_node13"><a xlink:title="~">
<polygon fill="#0ba64f" stroke="#0ba64f" points="831.5,-52 672.5,-52 672.5,0 831.5,0 831.5,-52"/>
<text text-anchor="middle" x="752" y="-40" font-family="Arial" font-size="10.00" fill="#ffffff">~:0:&lt;built&#45;in method posix.write&gt;</text>
<text text-anchor="middle" x="752" y="-29" font-family="Arial" font-size="10.00" fill="#ffffff">38.99%</text>
<text text-anchor="middle" x="752" y="-18" font-family="Arial" font-size="10.00" fill="#ffffff">(38.99%)</text>
<text text-anchor="middle" x="752" y="-7" font-family="Arial" font-size="10.00" fill="#ffffff">163981072×</text>
</a>
</g>
</g>
<!-- 244 -->
<g id="node14" class="node">
<title>244</title>
<g id="a_node14"><a xlink:title="/home/chervontsev/miniconda3/envs/rnd/lib/python3.6/multiprocessing/connection.py">
<polygon fill="#0ba74e" stroke="#0ba74e" points="808,-144 696,-144 696,-92 808,-92 808,-144"/>
<text text-anchor="middle" x="752" y="-132" font-family="Arial" font-size="10.00" fill="#ffffff">connection:365:_send</text>
<text text-anchor="middle" x="752" y="-121" font-family="Arial" font-size="10.00" fill="#ffffff">39.18%</text>
<text text-anchor="middle" x="752" y="-110" font-family="Arial" font-size="10.00" fill="#ffffff">(0.18%)</text>
<text text-anchor="middle" x="752" y="-99" font-family="Arial" font-size="10.00" fill="#ffffff">163981072×</text>
</a>
</g>
</g>
<!-- 244&#45;&gt;243 -->
<g id="edge11" class="edge">
<title>244&#45;&gt;243</title>
<path fill="none" stroke="#0ba64f" stroke-width="1.56" d="M752,-91.8826C752,-81.4911 752,-69.4234 752,-58.4771"/>
<polygon fill="#0ba64f" stroke="#0ba64f" stroke-width="1.56" points="754.1701,-58.3827 752,-52.1827 749.8301,-58.3828 754.1701,-58.3827"/>
<text text-anchor="middle" x="779" y="-75" font-family="Arial" font-size="10.00" fill="#0ba64f">38.99%</text>
<text text-anchor="middle" x="779" y="-64" font-family="Arial" font-size="10.00" fill="#0ba64f">163981072×</text>
</g>
<!-- 851 -->
<g id="node15" class="node">
<title>851</title>
<g id="a_node15"><a xlink:title="~">
<polygon fill="#ff0000" stroke="#ff0000" points="764.5,-880 597.5,-880 597.5,-828 764.5,-828 764.5,-880"/>
<text text-anchor="middle" x="681" y="-868" font-family="Arial" font-size="10.00" fill="#ffffff">~:0:&lt;built&#45;in method builtins.exec&gt;</text>
<text text-anchor="middle" x="681" y="-857" font-family="Arial" font-size="10.00" fill="#ffffff">100.00%</text>
<text text-anchor="middle" x="681" y="-846" font-family="Arial" font-size="10.00" fill="#ffffff">(0.00%)</text>
<text text-anchor="middle" x="681" y="-835" font-family="Arial" font-size="10.00" fill="#ffffff">1076×</text>
</a>
</g>
</g>
<!-- 1382 -->
<g id="node16" class="node">
<title>1382</title>
<g id="a_node16"><a xlink:title="montezuma_train.py">
<polygon fill="#ff0000" stroke="#ff0000" points="754,-788 608,-788 608,-736 754,-736 754,-788"/>
<text text-anchor="middle" x="681" y="-776" font-family="Arial" font-size="10.00" fill="#ffffff">montezuma_train:1:&lt;module&gt;</text>
<text text-anchor="middle" x="681" y="-765" font-family="Arial" font-size="10.00" fill="#ffffff">100.00%</text>
<text text-anchor="middle" x="681" y="-754" font-family="Arial" font-size="10.00" fill="#ffffff">(0.00%)</text>
<text text-anchor="middle" x="681" y="-743" font-family="Arial" font-size="10.00" fill="#ffffff">1×</text>
</a>
</g>
</g>
<!-- 851&#45;&gt;1382 -->
<g id="edge12" class="edge">
<title>851&#45;&gt;1382</title>
<path fill="none" stroke="#ff0000" stroke-width="4" d="M681,-827.8826C681,-818.6565 681,-808.1091 681,-798.1983"/>
<polygon fill="#ff0000" stroke="#ff0000" stroke-width="4" points="684.5001,-798.1827 681,-788.1827 677.5001,-798.1828 684.5001,-798.1827"/>
<text text-anchor="middle" x="700.5" y="-811" font-family="Arial" font-size="10.00" fill="#ff0000">100.00%</text>
<text text-anchor="middle" x="700.5" y="-800" font-family="Arial" font-size="10.00" fill="#ff0000">1×</text>
</g>
<!-- 1188 -->
<g id="node20" class="node">
<title>1188</title>
<g id="a_node20"><a xlink:title="montezuma_train.py">
<polygon fill="#ff0100" stroke="#ff0100" points="772.5,-696 589.5,-696 589.5,-644 772.5,-644 772.5,-696"/>
<text text-anchor="middle" x="681" y="-684" font-family="Arial" font-size="10.00" fill="#ffffff">montezuma_train:52:train_montezuma</text>
<text text-anchor="middle" x="681" y="-673" font-family="Arial" font-size="10.00" fill="#ffffff">99.89%</text>
<text text-anchor="middle" x="681" y="-662" font-family="Arial" font-size="10.00" fill="#ffffff">(0.00%)</text>
<text text-anchor="middle" x="681" y="-651" font-family="Arial" font-size="10.00" fill="#ffffff">1×</text>
</a>
</g>
</g>
<!-- 1382&#45;&gt;1188 -->
<g id="edge16" class="edge">
<title>1382&#45;&gt;1188</title>
<path fill="none" stroke="#ff0100" stroke-width="4" d="M681,-735.8826C681,-726.6565 681,-716.1091 681,-706.1983"/>
<polygon fill="#ff0100" stroke="#ff0100" stroke-width="4" points="684.5001,-706.1827 681,-696.1827 677.5001,-706.1828 684.5001,-706.1827"/>
<text text-anchor="middle" x="698" y="-719" font-family="Arial" font-size="10.00" fill="#ff0100">99.89%</text>
<text text-anchor="middle" x="698" y="-708" font-family="Arial" font-size="10.00" fill="#ff0100">1×</text>
</g>
<!-- 969 -->
<g id="node17" class="node">
<title>969</title>
<g id="a_node17"><a xlink:title="/home/chervontsev/lightning_rnd/env_runner.py">
<polygon fill="#0d3c80" stroke="#0d3c80" points="767,-328 595,-328 595,-276 767,-276 767,-328"/>
<text text-anchor="middle" x="681" y="-316" font-family="Arial" font-size="10.00" fill="#ffffff">env_runner:95:push_to_stored_data</text>
<text text-anchor="middle" x="681" y="-305" font-family="Arial" font-size="10.00" fill="#ffffff">10.20%</text>
<text text-anchor="middle" x="681" y="-294" font-family="Arial" font-size="10.00" fill="#ffffff">(9.33%)</text>
<text text-anchor="middle" x="681" y="-283" font-family="Arial" font-size="10.00" fill="#ffffff">663584288×</text>
</a>
</g>
</g>
<!-- 4427 -->
<g id="node18" class="node">
<title>4427</title>
<g id="a_node18"><a xlink:title="~">
<polygon fill="#0d1074" stroke="#0d1074" points="909.5,-236 742.5,-236 742.5,-184 909.5,-184 909.5,-236"/>
<text text-anchor="middle" x="826" y="-224" font-family="Arial" font-size="10.00" fill="#ffffff">~:0:&lt;built&#45;in method from_numpy&gt;</text>
<text text-anchor="middle" x="826" y="-213" font-family="Arial" font-size="10.00" fill="#ffffff">0.75%</text>
<text text-anchor="middle" x="826" y="-202" font-family="Arial" font-size="10.00" fill="#ffffff">(0.75%)</text>
<text text-anchor="middle" x="826" y="-191" font-family="Arial" font-size="10.00" fill="#ffffff">171671073×</text>
</a>
</g>
</g>
<!-- 969&#45;&gt;4427 -->
<g id="edge13" class="edge">
<title>969&#45;&gt;4427</title>
<path fill="none" stroke="#0d1074" stroke-width=".5" d="M722.1633,-275.8826C740.7632,-264.0813 762.7705,-250.118 781.7268,-238.0906"/>
<polygon fill="#0d1074" stroke="#0d1074" stroke-width=".5" points="782.6858,-238.9329 784.9849,-236.0234 781.3732,-236.8642 782.6858,-238.9329"/>
<text text-anchor="middle" x="798" y="-259" font-family="Arial" font-size="10.00" fill="#0d1074">0.75%</text>
<text text-anchor="middle" x="798" y="-248" font-family="Arial" font-size="10.00" fill="#0d1074">170391072×</text>
</g>
<!-- 1139 -->
<g id="node19" class="node">
<title>1139</title>
<g id="a_node19"><a xlink:title="/home/chervontsev/miniconda3/envs/rnd/lib/python3.6/multiprocessing/connection.py">
<polygon fill="#0ba74c" stroke="#0ba74c" points="733.5,-236 592.5,-236 592.5,-184 733.5,-184 733.5,-236"/>
<text text-anchor="middle" x="663" y="-224" font-family="Arial" font-size="10.00" fill="#ffffff">connection:390:_send_bytes</text>
<text text-anchor="middle" x="663" y="-213" font-family="Arial" font-size="10.00" fill="#ffffff">39.60%</text>
<text text-anchor="middle" x="663" y="-202" font-family="Arial" font-size="10.00" fill="#ffffff">(0.31%)</text>
<text text-anchor="middle" x="663" y="-191" font-family="Arial" font-size="10.00" fill="#ffffff">163981072×</text>
</a>
</g>
</g>
<!-- 1139&#45;&gt;244 -->
<g id="edge14" class="edge">
<title>1139&#45;&gt;244</title>
<path fill="none" stroke="#0ba74e" stroke-width="1.57" d="M688.2658,-183.8826C698.7881,-173.0055 711.0871,-160.2919 722.0591,-148.9502"/>
<polygon fill="#0ba74e" stroke="#0ba74e" stroke-width="1.57" points="723.8755,-150.2439 726.6711,-144.1827 720.7059,-147.1776 723.8755,-150.2439"/>
<text text-anchor="middle" x="746" y="-167" font-family="Arial" font-size="10.00" fill="#0ba74e">39.18%</text>
<text text-anchor="middle" x="746" y="-156" font-family="Arial" font-size="10.00" fill="#0ba74e">163981072×</text>
</g>
<!-- 1394 -->
<g id="node21" class="node">
<title>1394</title>
<g id="a_node21"><a xlink:title="/home/chervontsev/lightning_rnd/env_runner.py">
<polygon fill="#ff0300" stroke="#ff0300" points="745.5,-604 616.5,-604 616.5,-552 745.5,-552 745.5,-604"/>
<text text-anchor="middle" x="681" y="-592" font-family="Arial" font-size="10.00" fill="#ffffff">env_runner:158:run_agent</text>
<text text-anchor="middle" x="681" y="-581" font-family="Arial" font-size="10.00" fill="#ffffff">99.73%</text>
<text text-anchor="middle" x="681" y="-570" font-family="Arial" font-size="10.00" fill="#ffffff">(0.70%)</text>
<text text-anchor="middle" x="681" y="-559" font-family="Arial" font-size="10.00" fill="#ffffff">1×</text>
</a>
</g>
</g>
<!-- 1188&#45;&gt;1394 -->
<g id="edge15" class="edge">
<title>1188&#45;&gt;1394</title>
<path fill="none" stroke="#ff0300" stroke-width="3.99" d="M681,-643.8826C681,-634.6565 681,-624.1091 681,-614.1983"/>
<polygon fill="#ff0300" stroke="#ff0300" stroke-width="3.99" points="684.5001,-614.1827 681,-604.1827 677.5001,-614.1828 684.5001,-614.1827"/>
<text text-anchor="middle" x="698" y="-627" font-family="Arial" font-size="10.00" fill="#ff0300">99.73%</text>
<text text-anchor="middle" x="698" y="-616" font-family="Arial" font-size="10.00" fill="#ff0300">1×</text>
</g>
<!-- 1394&#45;&gt;123 -->
<g id="edge17" class="edge">
<title>1394&#45;&gt;123</title>
<path fill="none" stroke="#0c5887" stroke-width=".62" d="M616.3278,-564.9984C501.9482,-540.5718 271.5158,-484.4419 224,-420 202.1015,-390.3009 196.7713,-363.9276 222,-337 232.5058,-325.7867 345.0987,-331.75 360,-328 360.2967,-327.9253 360.5937,-327.8492 360.891,-327.7716"/>
<polygon fill="#0c5887" stroke="#0c5887" stroke-width=".62" points="361.3839,-329.0511 364.7707,-326.6841 360.647,-326.4224 361.3839,-329.0511"/>
<text text-anchor="middle" x="276" y="-443" font-family="Arial" font-size="10.00" fill="#0c5887">15.43%</text>
<text text-anchor="middle" x="276" y="-432" font-family="Arial" font-size="10.00" fill="#0c5887">10000×</text>
</g>
<!-- 1529 -->
<g id="node22" class="node">
<title>1529</title>
<g id="a_node22"><a xlink:title="/home/chervontsev/lightning_rnd/env_runner.py">
<polygon fill="#e4a404" stroke="#e4a404" points="757.5,-512 604.5,-512 604.5,-460 757.5,-460 757.5,-512"/>
<text text-anchor="middle" x="681" y="-500" font-family="Arial" font-size="10.00" fill="#ffffff">env_runner:126:run_agent_step</text>
<text text-anchor="middle" x="681" y="-489" font-family="Arial" font-size="10.00" fill="#ffffff">82.21%</text>
<text text-anchor="middle" x="681" y="-478" font-family="Arial" font-size="10.00" fill="#ffffff">(3.11%)</text>
<text text-anchor="middle" x="681" y="-467" font-family="Arial" font-size="10.00" fill="#ffffff">1281024×</text>
</a>
</g>
</g>
<!-- 1394&#45;&gt;1529 -->
<g id="edge18" class="edge">
<title>1394&#45;&gt;1529</title>
<path fill="none" stroke="#e4a404" stroke-width="3.29" d="M681,-551.8826C681,-542.4623 681,-531.6644 681,-521.5732"/>
<polygon fill="#e4a404" stroke="#e4a404" stroke-width="3.29" points="684.1851,-521.2827 681,-512.1827 677.8151,-521.2828 684.1851,-521.2827"/>
<text text-anchor="middle" x="702.5" y="-535" font-family="Arial" font-size="10.00" fill="#e4a404">82.15%</text>
<text text-anchor="middle" x="702.5" y="-524" font-family="Arial" font-size="10.00" fill="#e4a404">1280000×</text>
</g>
<!-- 1700 -->
<g id="node23" class="node">
<title>1700</title>
<g id="a_node23"><a xlink:title="/home/chervontsev/lightning_rnd/env_runner.py">
<polygon fill="#0d1274" stroke="#0d1274" points="1062.5,-512 903.5,-512 903.5,-460 1062.5,-460 1062.5,-512"/>
<text text-anchor="middle" x="983" y="-500" font-family="Arial" font-size="10.00" fill="#ffffff">env_runner:92:reset_stored_data</text>
<text text-anchor="middle" x="983" y="-489" font-family="Arial" font-size="10.00" fill="#ffffff">1.37%</text>
<text text-anchor="middle" x="983" y="-478" font-family="Arial" font-size="10.00" fill="#ffffff">(0.18%)</text>
<text text-anchor="middle" x="983" y="-467" font-family="Arial" font-size="10.00" fill="#ffffff">10002×</text>
</a>
</g>
</g>
<!-- 1394&#45;&gt;1700 -->
<g id="edge19" class="edge">
<title>1394&#45;&gt;1700</title>
<path fill="none" stroke="#0d1274" stroke-width=".5" d="M745.7866,-558.2637C790.808,-544.5486 851.2066,-526.149 899.7901,-511.3487"/>
<polygon fill="#0d1274" stroke="#0d1274" stroke-width=".5" points="900.2762,-512.4813 903.2673,-510.2894 899.5622,-510.1376 900.2762,-512.4813"/>
<text text-anchor="middle" x="884.5" y="-535" font-family="Arial" font-size="10.00" fill="#0d1274">1.37%</text>
<text text-anchor="middle" x="884.5" y="-524" font-family="Arial" font-size="10.00" fill="#0d1274">10000×</text>
</g>
<!-- 1548 -->
<g id="node26" class="node">
<title>1548</title>
<g id="a_node26"><a xlink:title="/home/chervontsev/lightning_rnd/rnd_agent.py">
<polygon fill="#0d2179" stroke="#0d2179" points="349.5,-420 228.5,-420 228.5,-368 349.5,-368 349.5,-420"/>
<text text-anchor="middle" x="289" y="-408" font-family="Arial" font-size="10.00" fill="#ffffff">rnd_agent:22:get_action</text>
<text text-anchor="middle" x="289" y="-397" font-family="Arial" font-size="10.00" fill="#ffffff">4.78%</text>
<text text-anchor="middle" x="289" y="-386" font-family="Arial" font-size="10.00" fill="#ffffff">(1.61%)</text>
<text text-anchor="middle" x="289" y="-375" font-family="Arial" font-size="10.00" fill="#ffffff">1290000×</text>
</a>
</g>
</g>
<!-- 1529&#45;&gt;1548 -->
<g id="edge21" class="edge">
<title>1529&#45;&gt;1548</title>
<path fill="none" stroke="#0d2179" stroke-width=".5" d="M604.1799,-469.3214C578.3572,-463.6249 549.4077,-457.1405 523,-451 465.4462,-437.6171 400.1275,-421.6399 353.1552,-410.0108"/>
<polygon fill="#0d2179" stroke="#0d2179" stroke-width=".5" points="353.2137,-408.7634 349.5218,-409.1109 352.6246,-411.1415 353.2137,-408.7634"/>
<text text-anchor="middle" x="544.5" y="-443" font-family="Arial" font-size="10.00" fill="#0d2179">4.74%</text>
<text text-anchor="middle" x="544.5" y="-432" font-family="Arial" font-size="10.00" fill="#0d2179">1280000×</text>
</g>
<!-- 1703 -->
<g id="node27" class="node">
<title>1703</title>
<g id="a_node27"><a xlink:title="/home/chervontsev/lightning_rnd/env_runner.py">
<polygon fill="#93cf07" stroke="#93cf07" points="582,-420 412,-420 412,-368 582,-368 582,-420"/>
<text text-anchor="middle" x="497" y="-408" font-family="Arial" font-size="10.00" fill="#ffffff">env_runner:104:collect_env_results</text>
<text text-anchor="middle" x="497" y="-397" font-family="Arial" font-size="10.00" fill="#ffffff">67.51%</text>
<text text-anchor="middle" x="497" y="-386" font-family="Arial" font-size="10.00" fill="#ffffff">(1.00%)</text>
<text text-anchor="middle" x="497" y="-375" font-family="Arial" font-size="10.00" fill="#ffffff">1281024×</text>
</a>
</g>
</g>
<!-- 1529&#45;&gt;1703 -->
<g id="edge22" class="edge">
<title>1529&#45;&gt;1703</title>
<path fill="none" stroke="#93cf07" stroke-width="2.7" d="M628.7652,-459.8826C606.2354,-448.6177 579.7659,-435.383 556.4846,-423.7423"/>
<polygon fill="#93cf07" stroke="#93cf07" stroke-width="2.7" points="557.6646,-421.1236 549.0468,-420.0234 555.0976,-426.2576 557.6646,-421.1236"/>
<text text-anchor="middle" x="632.5" y="-443" font-family="Arial" font-size="10.00" fill="#93cf07">67.51%</text>
<text text-anchor="middle" x="632.5" y="-432" font-family="Arial" font-size="10.00" fill="#93cf07">1281024×</text>
</g>
<!-- 1704 -->
<g id="node28" class="node">
<title>1704</title>
<g id="a_node28"><a xlink:title="/home/chervontsev/lightning_rnd/env_runner.py">
<polygon fill="#0d0f73" stroke="#0d0f73" points="770.5,-420 591.5,-420 591.5,-368 770.5,-368 770.5,-420"/>
<text text-anchor="middle" x="681" y="-408" font-family="Arial" font-size="10.00" fill="#ffffff">env_runner:117:collect_agent_results</text>
<text text-anchor="middle" x="681" y="-397" font-family="Arial" font-size="10.00" fill="#ffffff">0.57%</text>
<text text-anchor="middle" x="681" y="-386" font-family="Arial" font-size="10.00" fill="#ffffff">(0.01%)</text>
<text text-anchor="middle" x="681" y="-375" font-family="Arial" font-size="10.00" fill="#ffffff">1280000×</text>
</a>
</g>
</g>
<!-- 1529&#45;&gt;1704 -->
<g id="edge23" class="edge">
<title>1529&#45;&gt;1704</title>
<path fill="none" stroke="#0d0f73" stroke-width=".5" d="M681,-459.8826C681,-448.6171 681,-435.3815 681,-423.7404"/>
<polygon fill="#0d0f73" stroke="#0d0f73" stroke-width=".5" points="682.2251,-423.6827 681,-420.1827 679.7751,-423.6828 682.2251,-423.6827"/>
<text text-anchor="middle" x="702.5" y="-443" font-family="Arial" font-size="10.00" fill="#0d0f73">0.57%</text>
<text text-anchor="middle" x="702.5" y="-432" font-family="Arial" font-size="10.00" fill="#0d0f73">1280000×</text>
</g>
<!-- 1720 -->
<g id="node29" class="node">
<title>1720</title>
<g id="a_node29"><a xlink:title="/home/chervontsev/lightning_rnd/utils.py">
<polygon fill="#0d1776" stroke="#0d1776" points="860,-420 780,-420 780,-368 860,-368 860,-420"/>
<text text-anchor="middle" x="820" y="-408" font-family="Arial" font-size="10.00" fill="#ffffff">utils:35:update</text>
<text text-anchor="middle" x="820" y="-397" font-family="Arial" font-size="10.00" fill="#ffffff">2.48%</text>
<text text-anchor="middle" x="820" y="-386" font-family="Arial" font-size="10.00" fill="#ffffff">(0.01%)</text>
<text text-anchor="middle" x="820" y="-375" font-family="Arial" font-size="10.00" fill="#ffffff">1281024×</text>
</a>
</g>
</g>
<!-- 1529&#45;&gt;1720 -->
<g id="edge24" class="edge">
<title>1529&#45;&gt;1720</title>
<path fill="none" stroke="#0d1776" stroke-width=".5" d="M720.46,-459.8826C738.2144,-448.1315 759.2074,-434.2368 777.3267,-422.2442"/>
<polygon fill="#0d1776" stroke="#0d1776" stroke-width=".5" points="778.1988,-423.136 780.4413,-420.1827 776.8466,-421.093 778.1988,-423.136"/>
<text text-anchor="middle" x="789.5" y="-443" font-family="Arial" font-size="10.00" fill="#0d1776">2.48%</text>
<text text-anchor="middle" x="789.5" y="-432" font-family="Arial" font-size="10.00" fill="#0d1776">1281024×</text>
</g>
<!-- 4448 -->
<g id="node30" class="node">
<title>4448</title>
<g id="a_node30"><a xlink:title="~">
<polygon fill="#0d1976" stroke="#0d1976" points="1098.5,-420 869.5,-420 869.5,-368 1098.5,-368 1098.5,-420"/>
<text text-anchor="middle" x="984" y="-408" font-family="Arial" font-size="10.00" fill="#ffffff">~:0:&lt;method &#39;astype&#39; of &#39;numpy.ndarray&#39; objects&gt;</text>
<text text-anchor="middle" x="984" y="-397" font-family="Arial" font-size="10.00" fill="#ffffff">2.87%</text>
<text text-anchor="middle" x="984" y="-386" font-family="Arial" font-size="10.00" fill="#ffffff">(2.87%)</text>
<text text-anchor="middle" x="984" y="-375" font-family="Arial" font-size="10.00" fill="#ffffff">1291932×</text>
</a>
</g>
</g>
<!-- 1529&#45;&gt;4448 -->
<g id="edge25" class="edge">
<title>1529&#45;&gt;4448</title>
<path fill="none" stroke="#0d1976" stroke-width=".5" d="M757.6592,-466.5422C775.8608,-461.6826 795.1684,-456.3303 813,-451 843.3959,-441.9139 876.5346,-431.0852 905.477,-421.319"/>
<polygon fill="#0d1976" stroke="#0d1976" stroke-width=".5" points="906.0617,-422.4145 908.9853,-420.1334 905.2773,-420.0935 906.0617,-422.4145"/>
<text text-anchor="middle" x="901.5" y="-443" font-family="Arial" font-size="10.00" fill="#0d1976">2.85%</text>
<text text-anchor="middle" x="901.5" y="-432" font-family="Arial" font-size="10.00" fill="#0d1976">1281024×</text>
</g>
<!-- 1528 -->
<g id="node24" class="node">
<title>1528</title>
<g id="a_node24"><a xlink:title="/home/chervontsev/lightning_rnd/env_runner.py">
<polygon fill="#0d1274" stroke="#0d1274" points="1292.5,-420 1107.5,-420 1107.5,-368 1292.5,-368 1292.5,-420"/>
<text text-anchor="middle" x="1200" y="-408" font-family="Arial" font-size="10.00" fill="#ffffff">env_runner:23:get_default_stored_data</text>
<text text-anchor="middle" x="1200" y="-397" font-family="Arial" font-size="10.00" fill="#ffffff">1.19%</text>
<text text-anchor="middle" x="1200" y="-386" font-family="Arial" font-size="10.00" fill="#ffffff">(0.00%)</text>
<text text-anchor="middle" x="1200" y="-375" font-family="Arial" font-size="10.00" fill="#ffffff">10002×</text>
</a>
</g>
</g>
<!-- 1700&#45;&gt;1528 -->
<g id="edge29" class="edge">
<title>1700&#45;&gt;1528</title>
<path fill="none" stroke="#0d1274" stroke-width=".5" d="M1044.603,-459.8826C1072.8988,-447.8862 1106.4639,-433.6558 1135.1459,-421.4958"/>
<polygon fill="#0d1274" stroke="#0d1274" stroke-width=".5" points="1135.8746,-422.5174 1138.6188,-420.0234 1134.9182,-420.2618 1135.8746,-422.5174"/>
<text text-anchor="middle" x="1134.5" y="-443" font-family="Arial" font-size="10.00" fill="#0d1274">1.19%</text>
<text text-anchor="middle" x="1134.5" y="-432" font-family="Arial" font-size="10.00" fill="#0d1274">10002×</text>
</g>
<!-- 4444 -->
<g id="node25" class="node">
<title>4444</title>
<g id="a_node25"><a xlink:title="~">
<polygon fill="#0d1274" stroke="#0d1274" points="1268.5,-328 1131.5,-328 1131.5,-276 1268.5,-276 1268.5,-328"/>
<text text-anchor="middle" x="1200" y="-316" font-family="Arial" font-size="10.00" fill="#ffffff">~:0:&lt;built&#45;in method zeros&gt;</text>
<text text-anchor="middle" x="1200" y="-305" font-family="Arial" font-size="10.00" fill="#ffffff">1.19%</text>
<text text-anchor="middle" x="1200" y="-294" font-family="Arial" font-size="10.00" fill="#ffffff">(1.19%)</text>
<text text-anchor="middle" x="1200" y="-283" font-family="Arial" font-size="10.00" fill="#ffffff">110025×</text>
</a>
</g>
</g>
<!-- 1528&#45;&gt;4444 -->
<g id="edge20" class="edge">
<title>1528&#45;&gt;4444</title>
<path fill="none" stroke="#0d1274" stroke-width=".5" d="M1200,-367.8826C1200,-356.6171 1200,-343.3815 1200,-331.7404"/>
<polygon fill="#0d1274" stroke="#0d1274" stroke-width=".5" points="1201.2251,-331.6827 1200,-328.1827 1198.7751,-331.6828 1201.2251,-331.6827"/>
<text text-anchor="middle" x="1219" y="-351" font-family="Arial" font-size="10.00" fill="#0d1274">1.19%</text>
<text text-anchor="middle" x="1219" y="-340" font-family="Arial" font-size="10.00" fill="#0d1274">110022×</text>
</g>
<!-- 1548&#45;&gt;44 -->
<g id="edge27" class="edge">
<title>1548&#45;&gt;44</title>
<path fill="none" stroke="#0d1074" stroke-width=".5" d="M228.4918,-372.9601C193.6028,-360.5129 149.0492,-344.0787 110,-328 109.8366,-327.9327 109.6729,-327.8652 109.509,-327.7975"/>
<polygon fill="#0d1074" stroke="#0d1074" stroke-width=".5" points="109.7417,-326.5673 106.0398,-326.3505 108.7985,-328.8285 109.7417,-326.5673"/>
<text text-anchor="middle" x="210.5" y="-351" font-family="Arial" font-size="10.00" fill="#0d1074">0.86%</text>
<text text-anchor="middle" x="210.5" y="-340" font-family="Arial" font-size="10.00" fill="#0d1074">1290000×</text>
</g>
<!-- 1547 -->
<g id="node31" class="node">
<title>1547</title>
<g id="a_node31"><a xlink:title="~">
<polygon fill="#0d1675" stroke="#0d1675" points="355.5,-328 114.5,-328 114.5,-276 355.5,-276 355.5,-328"/>
<text text-anchor="middle" x="235" y="-316" font-family="Arial" font-size="10.00" fill="#ffffff">~:0:&lt;method &#39;to&#39; of &#39;torch._C._TensorBase&#39; objects&gt;</text>
<text text-anchor="middle" x="235" y="-305" font-family="Arial" font-size="10.00" fill="#ffffff">2.12%</text>
<text text-anchor="middle" x="235" y="-294" font-family="Arial" font-size="10.00" fill="#ffffff">(2.12%)</text>
<text text-anchor="middle" x="235" y="-283" font-family="Arial" font-size="10.00" fill="#ffffff">3850076×</text>
</a>
</g>
</g>
<!-- 1548&#45;&gt;1547 -->
<g id="edge28" class="edge">
<title>1548&#45;&gt;1547</title>
<path fill="none" stroke="#0d1575" stroke-width=".5" d="M286.6292,-367.992C284.8165,-357.7737 281.6229,-346.2915 276,-337 274.7917,-335.0033 273.4297,-333.0634 271.9554,-331.1884"/>
<polygon fill="#0d1575" stroke="#0d1575" stroke-width=".5" points="272.7314,-330.2054 269.5524,-328.2963 270.847,-331.7712 272.7314,-330.2054"/>
<text text-anchor="middle" x="306.5" y="-351" font-family="Arial" font-size="10.00" fill="#0d1575">2.01%</text>
<text text-anchor="middle" x="306.5" y="-340" font-family="Arial" font-size="10.00" fill="#0d1575">1290000×</text>
</g>
<!-- 1703&#45;&gt;123 -->
<g id="edge30" class="edge">
<title>1703&#45;&gt;123</title>
<path fill="none" stroke="#0d4983" stroke-width=".51" d="M463.6063,-367.7333C460.5852,-364.8996 457.6645,-361.9652 455,-359 447.4954,-350.6484 440.358,-340.7048 434.3376,-331.4792"/>
<polygon fill="#0d4983" stroke="#0d4983" stroke-width=".51" points="435.1805,-330.4609 432.1715,-328.117 433.062,-331.8258 435.1805,-330.4609"/>
<text text-anchor="middle" x="482" y="-351" font-family="Arial" font-size="10.00" fill="#0d4983">12.65%</text>
<text text-anchor="middle" x="482" y="-340" font-family="Arial" font-size="10.00" fill="#0d4983">163971072×</text>
</g>
<!-- 1703&#45;&gt;969 -->
<g id="edge31" class="edge">
<title>1703&#45;&gt;969</title>
<path fill="none" stroke="#0d397f" stroke-width=".5" d="M556.4052,-367.8778C562.7125,-364.9455 569.008,-361.9507 575,-359 593.3644,-349.9566 613.1969,-339.4871 630.6844,-330.0074"/>
<polygon fill="#0d397f" stroke="#0d397f" stroke-width=".5" points="631.6586,-330.8724 634.1495,-328.1254 630.4892,-328.7194 631.6586,-330.8724"/>
<text text-anchor="middle" x="644" y="-351" font-family="Arial" font-size="10.00" fill="#0d397f">9.63%</text>
<text text-anchor="middle" x="644" y="-340" font-family="Arial" font-size="10.00" fill="#0d397f">655884288×</text>
</g>
<!-- 2948 -->
<g id="node32" class="node">
<title>2948</title>
<g id="a_node32"><a xlink:title="/home/chervontsev/miniconda3/envs/rnd/lib/python3.6/multiprocessing/connection.py">
<polygon fill="#0aae30" stroke="#0aae30" points="585.5,-328 478.5,-328 478.5,-276 585.5,-276 585.5,-328"/>
<text text-anchor="middle" x="532" y="-316" font-family="Arial" font-size="10.00" fill="#ffffff">connection:202:send</text>
<text text-anchor="middle" x="532" y="-305" font-family="Arial" font-size="10.00" fill="#ffffff">44.22%</text>
<text text-anchor="middle" x="532" y="-294" font-family="Arial" font-size="10.00" fill="#ffffff">(0.43%)</text>
<text text-anchor="middle" x="532" y="-283" font-family="Arial" font-size="10.00" fill="#ffffff">163981072×</text>
</a>
</g>
</g>
<!-- 1703&#45;&gt;2948 -->
<g id="edge32" class="edge">
<title>1703&#45;&gt;2948</title>
<path fill="none" stroke="#0aae30" stroke-width="1.77" d="M506.936,-367.8826C510.8892,-357.4911 515.4802,-345.4234 519.6446,-334.4771"/>
<polygon fill="#0aae30" stroke="#0aae30" stroke-width="1.77" points="521.8514,-335.1728 522.0392,-328.1827 517.5333,-333.53 521.8514,-335.1728"/>
<text text-anchor="middle" x="546" y="-351" font-family="Arial" font-size="10.00" fill="#0aae30">44.22%</text>
<text text-anchor="middle" x="546" y="-340" font-family="Arial" font-size="10.00" fill="#0aae30">163971072×</text>
</g>
<!-- 1704&#45;&gt;969 -->
<g id="edge33" class="edge">
<title>1704&#45;&gt;969</title>
<path fill="none" stroke="#0d0f73" stroke-width=".5" d="M681,-367.8826C681,-356.6171 681,-343.3815 681,-331.7404"/>
<polygon fill="#0d0f73" stroke="#0d0f73" stroke-width=".5" points="682.2251,-331.6827 681,-328.1827 679.7751,-331.6828 682.2251,-331.6827"/>
<text text-anchor="middle" x="702.5" y="-351" font-family="Arial" font-size="10.00" fill="#0d0f73">0.57%</text>
<text text-anchor="middle" x="702.5" y="-340" font-family="Arial" font-size="10.00" fill="#0d0f73">7680000×</text>
</g>
<!-- 4443 -->
<g id="node33" class="node">
<title>4443</title>
<g id="a_node33"><a xlink:title="~">
<polygon fill="#0d1475" stroke="#0d1475" points="902,-328 776,-328 776,-276 902,-276 902,-328"/>
<text text-anchor="middle" x="839" y="-316" font-family="Arial" font-size="10.00" fill="#ffffff">~:0:&lt;built&#45;in method var&gt;</text>
<text text-anchor="middle" x="839" y="-305" font-family="Arial" font-size="10.00" fill="#ffffff">1.84%</text>
<text text-anchor="middle" x="839" y="-294" font-family="Arial" font-size="10.00" fill="#ffffff">(1.84%)</text>
<text text-anchor="middle" x="839" y="-283" font-family="Arial" font-size="10.00" fill="#ffffff">1281024×</text>
</a>
</g>
</g>
<!-- 1720&#45;&gt;4443 -->
<g id="edge34" class="edge">
<title>1720&#45;&gt;4443</title>
<path fill="none" stroke="#0d1475" stroke-width=".5" d="M825.3938,-367.8826C827.7204,-356.6171 830.4538,-343.3815 832.858,-331.7404"/>
<polygon fill="#0d1475" stroke="#0d1475" stroke-width=".5" points="834.0844,-331.8582 833.5927,-328.1827 831.685,-331.3626 834.0844,-331.8582"/>
<text text-anchor="middle" x="853.5" y="-351" font-family="Arial" font-size="10.00" fill="#0d1475">1.84%</text>
<text text-anchor="middle" x="853.5" y="-340" font-family="Arial" font-size="10.00" fill="#0d1475">1281024×</text>
</g>
<!-- 2948&#45;&gt;122 -->
<g id="edge35" class="edge">
<title>2948&#45;&gt;122</title>
<path fill="none" stroke="#0d1e78" stroke-width=".5" d="M532,-275.8826C532,-264.6171 532,-251.3815 532,-239.7404"/>
<polygon fill="#0d1e78" stroke="#0d1e78" stroke-width=".5" points="533.2251,-239.6827 532,-236.1827 530.7751,-239.6828 533.2251,-239.6827"/>
<text text-anchor="middle" x="559" y="-259" font-family="Arial" font-size="10.00" fill="#0d1e78">4.09%</text>
<text text-anchor="middle" x="559" y="-248" font-family="Arial" font-size="10.00" fill="#0d1e78">163981072×</text>
</g>
<!-- 2948&#45;&gt;1139 -->
<g id="edge36" class="edge">
<title>2948&#45;&gt;1139</title>
<path fill="none" stroke="#0ba74c" stroke-width="1.58" d="M574.7645,-275.8378C579.2709,-272.9132 583.7543,-269.9311 588,-267 600.1381,-258.6202 613.0322,-249.0704 624.6431,-240.2149"/>
<polygon fill="#0ba74c" stroke="#0ba74c" stroke-width="1.58" points="626.2208,-241.7839 629.8803,-236.2017 623.5384,-238.2835 626.2208,-241.7839"/>
<text text-anchor="middle" x="645" y="-259" font-family="Arial" font-size="10.00" fill="#0ba74c">39.60%</text>
<text text-anchor="middle" x="645" y="-248" font-family="Arial" font-size="10.00" fill="#0ba74c">163981072×</text>
</g>
</g>
</svg>
